<svg xmlns="http://www.w3.org/2000/svg" width="128" height="128" viewBox="0 0 128 128"><defs><linearGradient id="glass" x2=".8" y2="1"><stop stop-color="#d7eff4" stop-opacity=".45"/><stop offset="1" stop-color="#759398" stop-opacity=".1"/></linearGradient><linearGradient id="liquid" x2="0" y2="1"><stop stop-color="#f47995" stop-opacity=".8"/><stop offset="1" stop-color="#f47995" stop-opacity=".3"/></linearGradient></defs><path d="M51 24 V38 C51 43 31 45 29 62 L26 99 Q26 111 39 113 H89 Q102 111 102 99 L99 62 C97 45 77 43 77 38 V24 Z" fill="url(#glass)" stroke="#b9d3cf" stroke-width="2"/><path d="M31 67 Q50 62 64 68 T97 67 L99 99 Q99 109 88 110 H40 Q29 109 29 99 Z" fill="url(#liquid)"/><rect x="49" y="13" width="30" height="15" rx="3" fill="#916c44" stroke="#d5ad76" stroke-width="2"/><path d="M48 29 H80 M36 63 L34 93" fill="none" stroke="#f1faf1" stroke-width="3" opacity=".6"/><circle cx="64" cy="67" r="25" fill="#131e26" stroke="#f47995" stroke-width="2"/><path d="M64 82 L45 65 C35 49 54 43 64 57 C75 43 94 49 83 65 Z" fill="none" stroke="#f47995" stroke-width="3" stroke-linecap="round" stroke-linejoin="round"/><circle cx="96" cy="28" r="3" fill="#f47995"/><path d="M22 37 H32 M27 32 V42" stroke="#f47995" stroke-width="2"/></svg>
