<svg xmlns="http://www.w3.org/2000/svg" width="160" height="100" viewBox="0 0 160 100"><defs><radialGradient id="m"><stop stop-color="#bd8145"/><stop offset=".65" stop-color="#83502d"/><stop offset="1" stop-color="#38231b"/></radialGradient></defs><ellipse cx="80" cy="79" rx="59" ry="12" fill="#10161b" opacity=".5"/><path d="M23 62Q13 42 37 24Q62 9 86 25Q113 13 133 36Q153 63 126 76Q94 86 80 71Q41 90 23 62Z" fill="url(#m)" stroke="#ad8150" stroke-width="4"/><g fill="none" stroke="#342019" stroke-width="5" stroke-linecap="round"><path d="M37 38L55 67M60 30L85 66M86 35L111 68M109 31L130 57"/></g><g fill="none" stroke="#dcc9a6" stroke-width="2" opacity=".55"><path d="M57 15Q50 9 58 2M80 17Q74 9 82 1M103 14Q97 8 104 2"/></g></svg>
